<mxfile host="app.diagrams.net" modified="2021-05-02T14:29:44.170Z" agent="5.0 (X11)" etag="wz_Z1HMOcs-Rkn8XT7ae" version="14.6.9" type="github">
  <diagram name="Page-1" id="42789a77-a242-8287-6e28-9cd8cfd52e62">
    <mxGraphModel dx="1379" dy="881" grid="1" gridSize="10" guides="1" tooltips="1" connect="1" arrows="1" fold="1" page="1" pageScale="1" pageWidth="1169" pageHeight="827" background="#ffffff" math="0" shadow="0">
      <root>
        <mxCell id="0" />
        <mxCell id="1" parent="0" />
        <mxCell id="wkch7qJyEkhwQZ7BD1wN-1" value="&lt;font style=&quot;font-size: 24px&quot;&gt;N&lt;/font&gt;" style="ellipse;whiteSpace=wrap;html=1;aspect=fixed;" vertex="1" parent="1">
          <mxGeometry x="1060" y="50" width="50" height="50" as="geometry" />
        </mxCell>
        <mxCell id="wkch7qJyEkhwQZ7BD1wN-2" value="" style="endArrow=classic;html=1;" edge="1" parent="1" source="wkch7qJyEkhwQZ7BD1wN-1">
          <mxGeometry width="50" height="50" relative="1" as="geometry">
            <mxPoint x="680" y="420" as="sourcePoint" />
            <mxPoint x="1130" y="75" as="targetPoint" />
            <Array as="points" />
          </mxGeometry>
        </mxCell>
        <mxCell id="wkch7qJyEkhwQZ7BD1wN-5" value="" style="curved=1;endArrow=none;html=1;endFill=0;strokeWidth=3;" edge="1" parent="1">
          <mxGeometry width="50" height="50" relative="1" as="geometry">
            <mxPoint x="30" y="800" as="sourcePoint" />
            <mxPoint x="1150" y="580" as="targetPoint" />
            <Array as="points">
              <mxPoint x="560" y="790" />
              <mxPoint x="840" y="700" />
              <mxPoint x="1020" y="630" />
            </Array>
          </mxGeometry>
        </mxCell>
        <mxCell id="wkch7qJyEkhwQZ7BD1wN-6" value="" style="rounded=0;whiteSpace=wrap;html=1;" vertex="1" parent="1">
          <mxGeometry x="240" y="760" width="30" height="50" as="geometry" />
        </mxCell>
        <mxCell id="wkch7qJyEkhwQZ7BD1wN-9" value="" style="whiteSpace=wrap;html=1;aspect=fixed;" vertex="1" parent="1">
          <mxGeometry x="337.48" y="630" width="30" height="30" as="geometry" />
        </mxCell>
        <mxCell id="wkch7qJyEkhwQZ7BD1wN-10" value="&lt;font style=&quot;font-size: 14px&quot;&gt;Plattform 8m&lt;/font&gt;" style="text;html=1;strokeColor=none;fillColor=none;align=center;verticalAlign=middle;whiteSpace=wrap;rounded=0;" vertex="1" parent="1">
          <mxGeometry x="367.48" y="635" width="85" height="20" as="geometry" />
        </mxCell>
        <mxCell id="wkch7qJyEkhwQZ7BD1wN-11" value="&lt;font style=&quot;font-size: 14px&quot;&gt;Einstieg&lt;/font&gt;" style="text;html=1;strokeColor=none;fillColor=none;align=center;verticalAlign=middle;whiteSpace=wrap;rounded=0;" vertex="1" parent="1">
          <mxGeometry x="190" y="770" width="40" height="20" as="geometry" />
        </mxCell>
        <mxCell id="wkch7qJyEkhwQZ7BD1wN-12" value="" style="endArrow=classic;html=1;startArrow=classic;startFill=1;entryX=0;entryY=1;entryDx=0;entryDy=0;" edge="1" parent="1" target="wkch7qJyEkhwQZ7BD1wN-9">
          <mxGeometry width="50" height="50" relative="1" as="geometry">
            <mxPoint x="270" y="760" as="sourcePoint" />
            <mxPoint x="340" y="640" as="targetPoint" />
          </mxGeometry>
        </mxCell>
        <mxCell id="wkch7qJyEkhwQZ7BD1wN-13" value="&lt;font style=&quot;font-size: 14px&quot;&gt;270&lt;/font&gt;" style="edgeLabel;html=1;align=center;verticalAlign=middle;resizable=0;points=[];" vertex="1" connectable="0" parent="wkch7qJyEkhwQZ7BD1wN-12">
          <mxGeometry x="0.4841" y="2" relative="1" as="geometry">
            <mxPoint x="-29" y="46" as="offset" />
          </mxGeometry>
        </mxCell>
        <mxCell id="wkch7qJyEkhwQZ7BD1wN-25" value="&lt;font style=&quot;font-size: 14px&quot;&gt;90&lt;/font&gt;" style="edgeLabel;html=1;align=center;verticalAlign=middle;resizable=0;points=[];" vertex="1" connectable="0" parent="wkch7qJyEkhwQZ7BD1wN-12">
          <mxGeometry x="0.3428" y="-2" relative="1" as="geometry">
            <mxPoint x="3" y="-4" as="offset" />
          </mxGeometry>
        </mxCell>
        <mxCell id="wkch7qJyEkhwQZ7BD1wN-15" value="" style="endArrow=classic;html=1;exitX=1;exitY=0;exitDx=0;exitDy=0;" edge="1" parent="1" source="wkch7qJyEkhwQZ7BD1wN-6">
          <mxGeometry width="50" height="50" relative="1" as="geometry">
            <mxPoint x="470" y="420" as="sourcePoint" />
            <mxPoint x="1100" y="530" as="targetPoint" />
          </mxGeometry>
        </mxCell>
        <mxCell id="wkch7qJyEkhwQZ7BD1wN-16" value="&lt;font style=&quot;font-size: 14px&quot;&gt;330&lt;/font&gt;" style="edgeLabel;html=1;align=center;verticalAlign=middle;resizable=0;points=[];" vertex="1" connectable="0" parent="wkch7qJyEkhwQZ7BD1wN-15">
          <mxGeometry x="0.5314" y="2" relative="1" as="geometry">
            <mxPoint x="-555" y="158" as="offset" />
          </mxGeometry>
        </mxCell>
        <mxCell id="wkch7qJyEkhwQZ7BD1wN-19" value="" style="ellipse;whiteSpace=wrap;html=1;aspect=fixed;" vertex="1" parent="1">
          <mxGeometry x="50" y="260" width="30" height="30" as="geometry" />
        </mxCell>
        <mxCell id="wkch7qJyEkhwQZ7BD1wN-21" value="" style="endArrow=classic;html=1;startArrow=classic;startFill=1;entryX=0;entryY=0;entryDx=0;entryDy=0;exitX=1;exitY=1;exitDx=0;exitDy=0;" edge="1" parent="1" source="wkch7qJyEkhwQZ7BD1wN-19" target="wkch7qJyEkhwQZ7BD1wN-6">
          <mxGeometry width="50" height="50" relative="1" as="geometry">
            <mxPoint x="100" y="270" as="sourcePoint" />
            <mxPoint x="167.48000000000002" y="170" as="targetPoint" />
          </mxGeometry>
        </mxCell>
        <mxCell id="wkch7qJyEkhwQZ7BD1wN-22" value="&lt;font style=&quot;font-size: 14px&quot;&gt;30&lt;/font&gt;" style="edgeLabel;html=1;align=center;verticalAlign=middle;resizable=0;points=[];" vertex="1" connectable="0" parent="wkch7qJyEkhwQZ7BD1wN-21">
          <mxGeometry x="0.4841" y="2" relative="1" as="geometry">
            <mxPoint x="-105" y="-355" as="offset" />
          </mxGeometry>
        </mxCell>
        <mxCell id="wkch7qJyEkhwQZ7BD1wN-24" value="&lt;font style=&quot;font-size: 14px&quot;&gt;210&lt;/font&gt;" style="edgeLabel;html=1;align=center;verticalAlign=middle;resizable=0;points=[];" vertex="1" connectable="0" parent="wkch7qJyEkhwQZ7BD1wN-21">
          <mxGeometry x="0.7458" y="1" relative="1" as="geometry">
            <mxPoint x="2" y="24" as="offset" />
          </mxGeometry>
        </mxCell>
        <mxCell id="wkch7qJyEkhwQZ7BD1wN-26" value="&lt;font style=&quot;font-size: 14px&quot;&gt;Gipfelkreuz 4m&lt;/font&gt;" style="text;html=1;strokeColor=none;fillColor=none;align=center;verticalAlign=middle;whiteSpace=wrap;rounded=0;" vertex="1" parent="1">
          <mxGeometry x="30" y="220" width="110" height="20" as="geometry" />
        </mxCell>
        <mxCell id="wkch7qJyEkhwQZ7BD1wN-29" value="" style="ellipse;whiteSpace=wrap;html=1;aspect=fixed;" vertex="1" parent="1">
          <mxGeometry x="130" y="500" width="30" height="30" as="geometry" />
        </mxCell>
        <mxCell id="wkch7qJyEkhwQZ7BD1wN-30" value="&lt;font style=&quot;font-size: 14px&quot;&gt;BÃ¤ume 6m&lt;/font&gt;" style="text;html=1;strokeColor=none;fillColor=none;align=center;verticalAlign=middle;whiteSpace=wrap;rounded=0;" vertex="1" parent="1">
          <mxGeometry x="165" y="505" width="90" height="20" as="geometry" />
        </mxCell>
        <mxCell id="wkch7qJyEkhwQZ7BD1wN-32" value="" style="curved=1;endArrow=none;html=1;strokeWidth=1;dashed=1;endFill=0;" edge="1" parent="1">
          <mxGeometry width="50" height="50" relative="1" as="geometry">
            <mxPoint x="190" y="690" as="sourcePoint" />
            <mxPoint x="410" y="540" as="targetPoint" />
            <Array as="points">
              <mxPoint x="220" y="590" />
              <mxPoint x="330" y="540" />
            </Array>
          </mxGeometry>
        </mxCell>
        <mxCell id="wkch7qJyEkhwQZ7BD1wN-33" value="" style="endArrow=none;dashed=1;html=1;dashPattern=1 4;strokeWidth=1;exitX=0.5;exitY=0;exitDx=0;exitDy=0;" edge="1" parent="1" source="wkch7qJyEkhwQZ7BD1wN-9">
          <mxGeometry width="50" height="50" relative="1" as="geometry">
            <mxPoint x="470" y="440" as="sourcePoint" />
            <mxPoint x="352" y="540" as="targetPoint" />
          </mxGeometry>
        </mxCell>
        <mxCell id="wkch7qJyEkhwQZ7BD1wN-34" value="" style="endArrow=none;dashed=1;html=1;dashPattern=1 4;strokeWidth=1;exitX=0.25;exitY=0;exitDx=0;exitDy=0;" edge="1" parent="1" source="wkch7qJyEkhwQZ7BD1wN-9">
          <mxGeometry width="50" height="50" relative="1" as="geometry">
            <mxPoint x="320.48" y="620" as="sourcePoint" />
            <mxPoint x="290" y="560" as="targetPoint" />
          </mxGeometry>
        </mxCell>
        <mxCell id="wkch7qJyEkhwQZ7BD1wN-35" value="" style="endArrow=none;dashed=1;html=1;dashPattern=1 4;strokeWidth=1;exitX=0;exitY=0.5;exitDx=0;exitDy=0;" edge="1" parent="1" source="wkch7qJyEkhwQZ7BD1wN-9">
          <mxGeometry width="50" height="50" relative="1" as="geometry">
            <mxPoint x="294.98" y="650" as="sourcePoint" />
            <mxPoint x="210" y="645" as="targetPoint" />
          </mxGeometry>
        </mxCell>
        <mxCell id="wkch7qJyEkhwQZ7BD1wN-36" value="" style="curved=1;endArrow=none;html=1;strokeWidth=1;dashed=1;endFill=0;" edge="1" parent="1">
          <mxGeometry width="50" height="50" relative="1" as="geometry">
            <mxPoint x="470" y="510" as="sourcePoint" />
            <mxPoint x="430" y="330" as="targetPoint" />
            <Array as="points">
              <mxPoint x="440" y="510" />
              <mxPoint x="360" y="500" />
            </Array>
          </mxGeometry>
        </mxCell>
        <mxCell id="wkch7qJyEkhwQZ7BD1wN-38" value="" style="ellipse;whiteSpace=wrap;html=1;aspect=fixed;" vertex="1" parent="1">
          <mxGeometry x="460" y="330" width="30" height="30" as="geometry" />
        </mxCell>
        <mxCell id="wkch7qJyEkhwQZ7BD1wN-39" value="&lt;font style=&quot;font-size: 14px&quot;&gt;WeiÃe Tonne 9m&lt;/font&gt;" style="text;html=1;strokeColor=none;fillColor=none;align=center;verticalAlign=middle;whiteSpace=wrap;rounded=0;" vertex="1" parent="1">
          <mxGeometry x="490" y="335" width="110" height="20" as="geometry" />
        </mxCell>
        <mxCell id="wkch7qJyEkhwQZ7BD1wN-40" value="" style="curved=1;endArrow=none;html=1;strokeWidth=1;dashed=1;endFill=0;" edge="1" parent="1">
          <mxGeometry width="50" height="50" relative="1" as="geometry">
            <mxPoint x="430" y="330" as="sourcePoint" />
            <mxPoint x="580" y="200" as="targetPoint" />
            <Array as="points">
              <mxPoint x="480" y="310" />
              <mxPoint x="500" y="250" />
              <mxPoint x="550" y="250" />
            </Array>
          </mxGeometry>
        </mxCell>
        <mxCell id="wkch7qJyEkhwQZ7BD1wN-42" value="" style="ellipse;whiteSpace=wrap;html=1;aspect=fixed;" vertex="1" parent="1">
          <mxGeometry x="460" y="180" width="30" height="30" as="geometry" />
        </mxCell>
        <mxCell id="wkch7qJyEkhwQZ7BD1wN-43" value="&lt;font style=&quot;font-size: 14px&quot;&gt;Skelett 6m&lt;/font&gt;" style="text;html=1;strokeColor=none;fillColor=none;align=center;verticalAlign=middle;whiteSpace=wrap;rounded=0;" vertex="1" parent="1">
          <mxGeometry x="420" y="160" width="110" height="20" as="geometry" />
        </mxCell>
        <mxCell id="wkch7qJyEkhwQZ7BD1wN-44" value="" style="endArrow=classic;html=1;startArrow=classic;startFill=1;entryX=0;entryY=0.5;entryDx=0;entryDy=0;exitX=1;exitY=0.5;exitDx=0;exitDy=0;" edge="1" parent="1" source="wkch7qJyEkhwQZ7BD1wN-19" target="wkch7qJyEkhwQZ7BD1wN-42">
          <mxGeometry width="50" height="50" relative="1" as="geometry">
            <mxPoint x="179.99660171779817" y="-100.00339828220183" as="sourcePoint" />
            <mxPoint x="354.39" y="484.39" as="targetPoint" />
          </mxGeometry>
        </mxCell>
        <mxCell id="wkch7qJyEkhwQZ7BD1wN-47" value="&lt;font style=&quot;font-size: 14px&quot;&gt;150&lt;/font&gt;" style="edgeLabel;html=1;align=center;verticalAlign=middle;resizable=0;points=[];" vertex="1" connectable="0" parent="wkch7qJyEkhwQZ7BD1wN-44">
          <mxGeometry x="0.7256" y="-1" relative="1" as="geometry">
            <mxPoint as="offset" />
          </mxGeometry>
        </mxCell>
        <mxCell id="wkch7qJyEkhwQZ7BD1wN-48" value="&lt;font style=&quot;font-size: 14px&quot;&gt;330&lt;/font&gt;" style="edgeLabel;html=1;align=center;verticalAlign=middle;resizable=0;points=[];" vertex="1" connectable="0" parent="wkch7qJyEkhwQZ7BD1wN-44">
          <mxGeometry x="-0.707" y="1" relative="1" as="geometry">
            <mxPoint as="offset" />
          </mxGeometry>
        </mxCell>
        <mxCell id="wkch7qJyEkhwQZ7BD1wN-52" value="" style="curved=1;endArrow=none;html=1;strokeWidth=1;dashed=1;endFill=0;" edge="1" parent="1">
          <mxGeometry width="50" height="50" relative="1" as="geometry">
            <mxPoint x="580" y="200" as="sourcePoint" />
            <mxPoint x="745.0121980978229" y="91.23475237772163" as="targetPoint" />
            <Array as="points">
              <mxPoint x="630" y="180" />
              <mxPoint x="680" y="130" />
              <mxPoint x="730" y="110" />
            </Array>
          </mxGeometry>
        </mxCell>
        <mxCell id="wkch7qJyEkhwQZ7BD1wN-54" value="" style="ellipse;whiteSpace=wrap;html=1;aspect=fixed;" vertex="1" parent="1">
          <mxGeometry x="720" y="50" width="30" height="30" as="geometry" />
        </mxCell>
        <mxCell id="wkch7qJyEkhwQZ7BD1wN-55" value="&lt;font style=&quot;font-size: 14px&quot;&gt;Zelte 6m ?&lt;/font&gt;" style="text;html=1;strokeColor=none;fillColor=none;align=center;verticalAlign=middle;whiteSpace=wrap;rounded=0;" vertex="1" parent="1">
          <mxGeometry x="680" y="30" width="110" height="20" as="geometry" />
        </mxCell>
        <mxCell id="wkch7qJyEkhwQZ7BD1wN-60" value="" style="ellipse;whiteSpace=wrap;html=1;aspect=fixed;" vertex="1" parent="1">
          <mxGeometry x="630" y="670" width="30" height="30" as="geometry" />
        </mxCell>
        <mxCell id="wkch7qJyEkhwQZ7BD1wN-61" value="&lt;font style=&quot;font-size: 14px&quot;&gt;Gartenzwerg 4m&lt;br&gt;&lt;/font&gt;" style="text;html=1;strokeColor=none;fillColor=none;align=center;verticalAlign=middle;whiteSpace=wrap;rounded=0;" vertex="1" parent="1">
          <mxGeometry x="660" y="675" width="110" height="20" as="geometry" />
        </mxCell>
        <mxCell id="wkch7qJyEkhwQZ7BD1wN-62" value="" style="ellipse;whiteSpace=wrap;html=1;aspect=fixed;" vertex="1" parent="1">
          <mxGeometry x="700" y="600" width="30" height="30" as="geometry" />
        </mxCell>
        <mxCell id="wkch7qJyEkhwQZ7BD1wN-63" value="&lt;font style=&quot;font-size: 14px&quot;&gt;WeihnachtsbÃ¤ume 6m&lt;/font&gt;" style="text;html=1;strokeColor=none;fillColor=none;align=center;verticalAlign=middle;whiteSpace=wrap;rounded=0;" vertex="1" parent="1">
          <mxGeometry x="640" y="580" width="150" height="20" as="geometry" />
        </mxCell>
        <mxCell id="wkch7qJyEkhwQZ7BD1wN-65" value="" style="ellipse;whiteSpace=wrap;html=1;aspect=fixed;" vertex="1" parent="1">
          <mxGeometry x="990" y="300" width="30" height="30" as="geometry" />
        </mxCell>
        <mxCell id="wkch7qJyEkhwQZ7BD1wN-66" value="&lt;font style=&quot;font-size: 14px&quot;&gt;20m Loch ?&lt;br&gt;&lt;/font&gt;" style="text;html=1;strokeColor=none;fillColor=none;align=center;verticalAlign=middle;whiteSpace=wrap;rounded=0;" vertex="1" parent="1">
          <mxGeometry x="1010" y="305" width="110" height="20" as="geometry" />
        </mxCell>
        <mxCell id="wkch7qJyEkhwQZ7BD1wN-67" value="" style="ellipse;whiteSpace=wrap;html=1;aspect=fixed;" vertex="1" parent="1">
          <mxGeometry x="650" y="160" width="30" height="30" as="geometry" />
        </mxCell>
        <mxCell id="wkch7qJyEkhwQZ7BD1wN-68" value="&lt;font style=&quot;font-size: 14px&quot;&gt;Lola die Wasserleiche 5m ?&lt;/font&gt;" style="text;html=1;strokeColor=none;fillColor=none;align=center;verticalAlign=middle;whiteSpace=wrap;rounded=0;" vertex="1" parent="1">
          <mxGeometry x="680" y="170" width="110" height="20" as="geometry" />
        </mxCell>
      </root>
    </mxGraphModel>
  </diagram>
</mxfile>
